<svg width="100" height="100" viewBox="0 0 302 447" fill="none" xmlns="http://www.w3.org/2000/svg">
<rect width="100" height="100" fill="none"/>
<rect width="100" height="100" fill="none"/>
<g filter="url(#filter0_d)">
<ellipse cx="153" cy="282" rx="95" ry="96" fill="url(#paint0_linear)"/>
<ellipse cx="153" cy="282" rx="95" ry="96" stroke="url(#paint1_linear)" stroke-width="4" stroke-linecap="round"/>
</g>
<line x1="103.546" y1="257.453" x2="104.453" y2="306.454" stroke="#FF4949" stroke-width="5" stroke-linecap="round"/>
<line x1="194.71" y1="331.524" x2="152.524" y2="367.29" stroke="#FF4949" stroke-width="5" stroke-linecap="round"/>
<line x1="212.53" y1="348.529" x2="132.529" y2="349.47" stroke="#FF4949" stroke-width="5" stroke-linecap="round"/>
<line x1="174.546" y1="203.453" x2="175.453" y2="252.454" stroke="#FF4949" stroke-width="5" stroke-linecap="round"/>
<path d="M145.032 342.224H150.888V344H142.848V327.272H145.032V342.224ZM162.015 344L158.031 337.16H155.391V344H153.207V327.272H158.607C159.871 327.272 160.935 327.488 161.799 327.92C162.679 328.352 163.335 328.936 163.767 329.672C164.199 330.408 164.415 331.248 164.415 332.192C164.415 333.344 164.079 334.36 163.407 335.24C162.751 336.12 161.759 336.704 160.431 336.992L164.631 344H162.015ZM155.391 335.408H158.607C159.791 335.408 160.679 335.12 161.271 334.544C161.863 333.952 162.159 333.168 162.159 332.192C162.159 331.2 161.863 330.432 161.271 329.888C160.695 329.344 159.807 329.072 158.607 329.072H155.391V335.408Z" fill="url(#paint2_linear)"/>
<path d="M179.294 150.097C164.39 147.658 147.418 146.357 129.743 146.357C113.566 146.357 97.9815 147.445 84.0336 149.497C84.0368 149.277 84.04 149.058 84.0495 148.838C84.4193 136.092 89.6375 124 98.5889 115.146C107.54 106.293 119.515 101.38 131.953 101.458C144.391 101.536 156.306 106.598 165.151 115.563C173.996 124.528 179.07 136.685 179.288 149.434C179.291 149.657 179.294 149.877 179.294 150.097Z" fill="url(#paint3_linear)"/>
<g opacity="0.1">
<path opacity="0.1" d="M137.911 101.44C131.295 100.524 124.566 101.043 118.159 102.964C111.752 104.884 105.81 108.164 100.718 112.589C95.6267 117.015 91.499 122.488 88.6026 128.654C85.7063 134.82 84.106 141.541 83.9054 148.381C83.8958 148.601 83.8927 148.82 83.8895 149.04C88.0333 148.43 92.3244 147.908 96.7298 147.472C97.2686 136.076 101.682 125.233 109.204 116.825C116.726 108.416 126.883 102.973 137.911 101.44V101.44Z" fill="white"/>
</g>
<path d="M200.131 153.97C193.271 152.064 186.312 150.549 179.288 149.434C167.774 147.605 156.167 146.462 144.525 146.01C139.675 145.806 134.736 145.702 129.743 145.702C125.785 145.702 121.859 145.767 117.988 145.898C106.631 146.242 95.3014 147.224 84.0495 148.838C75.7203 150.014 67.472 151.728 59.3537 153.97C40.425 159.335 30 166.526 30 174.215C30 181.904 40.425 189.094 59.3537 194.459C72.6655 198.235 89.0782 200.807 106.962 201.987C114.343 202.479 121.974 202.728 129.743 202.728C137.536 202.728 145.193 202.476 152.597 201.984C168.872 200.906 183.93 198.674 196.532 195.429C196.599 195.41 196.663 195.393 196.73 195.377C197.58 195.161 198.418 194.934 199.246 194.708C199.543 194.623 199.837 194.541 200.131 194.459C200.148 194.452 200.165 194.447 200.182 194.443C200.464 194.364 200.742 194.282 201.02 194.204C201.576 194.04 202.126 193.879 202.666 193.712C202.692 193.705 202.714 193.699 202.737 193.692C203.207 193.548 203.667 193.404 204.124 193.26C204.498 193.138 204.869 193.02 205.237 192.899C205.505 192.811 205.771 192.722 206.033 192.634C206.225 192.568 206.413 192.506 206.599 192.44C206.851 192.355 207.104 192.267 207.353 192.178C207.459 192.142 207.564 192.106 207.666 192.067C207.906 191.985 208.14 191.9 208.373 191.814C208.625 191.723 208.878 191.628 209.127 191.536C209.335 191.46 209.543 191.382 209.748 191.303C209.92 191.234 210.09 191.169 210.262 191.103C210.732 190.923 211.193 190.736 211.647 190.553C211.874 190.457 212.101 190.366 212.324 190.271C212.545 190.179 212.769 190.084 212.986 189.989C213.344 189.835 213.696 189.681 214.041 189.527C214.207 189.448 214.377 189.373 214.54 189.301C214.664 189.242 214.786 189.186 214.911 189.127C215 189.088 215.09 189.045 215.176 189.002C215.499 188.852 215.818 188.698 216.132 188.544C217.334 187.954 218.456 187.351 219.498 186.734C226.036 182.897 229.485 178.639 229.485 174.215C229.485 166.526 219.06 159.335 200.131 153.97ZM199.959 193.83C186.631 197.609 170.174 200.181 152.242 201.352C144.95 201.827 137.412 202.073 129.743 202.073C122.099 202.073 114.586 201.83 107.316 201.355C89.3564 200.188 72.8733 197.615 59.5263 193.83C40.8981 188.547 30.6394 181.582 30.6394 174.215C30.6404 173.564 30.7199 172.915 30.876 172.284C32.5063 165.638 42.5349 159.417 59.5263 154.6C67.5832 152.375 75.7684 150.67 84.0336 149.497C95.3532 147.873 106.751 146.888 118.176 146.547C121.987 146.419 125.842 146.356 129.743 146.357C134.669 146.357 139.541 146.459 144.33 146.655C156.04 147.103 167.715 148.253 179.294 150.097C186.258 151.206 193.157 152.71 199.959 154.6C216.947 159.417 226.972 165.635 228.606 172.278C228.765 172.911 228.845 173.561 228.846 174.215C228.846 181.582 218.587 188.547 199.959 193.83V193.83Z" fill="#3F3D56"/>
<path d="M229.303 174.513C229.303 178.892 225.783 183.034 219.498 186.734C218.453 187.351 217.327 187.954 216.132 188.544C215.818 188.698 215.499 188.852 215.176 189.002C215.09 189.045 215 189.088 214.911 189.127C214.786 189.186 214.664 189.242 214.54 189.301C214.377 189.373 214.207 189.448 214.041 189.527C213.696 189.681 213.344 189.835 212.986 189.989C212.769 190.084 212.545 190.179 212.324 190.271C212.1 190.366 211.874 190.457 211.647 190.553C211.193 190.736 210.732 190.923 210.262 191.103C210.09 191.169 209.92 191.234 209.747 191.303C209.543 191.382 209.335 191.46 209.127 191.536C208.878 191.628 208.625 191.723 208.373 191.814C208.14 191.9 207.906 191.985 207.666 192.067C207.564 192.106 207.459 192.142 207.353 192.178C207.104 192.267 206.851 192.355 206.599 192.44C206.413 192.506 206.225 192.568 206.033 192.634C205.771 192.722 205.505 192.811 205.237 192.899C204.869 193.02 204.498 193.138 204.124 193.26C203.667 193.404 203.207 193.548 202.737 193.692C202.714 193.699 202.692 193.705 202.666 193.712C202.126 193.879 201.576 194.04 201.02 194.204C200.742 194.282 200.464 194.364 200.182 194.443C200.165 194.447 200.148 194.452 200.131 194.459C199.837 194.541 199.543 194.623 199.246 194.708C198.421 194.931 197.58 195.157 196.73 195.377C196.663 195.393 196.599 195.41 196.532 195.429C184.272 198.569 169.23 200.857 152.584 201.961C145.292 202.443 137.69 202.699 129.88 202.699C122 202.699 114.334 202.44 106.984 201.948C63.11 199.015 30.4572 187.845 30.4572 174.513C30.4606 173.702 30.5813 172.896 30.8151 172.121C30.8343 172.176 30.8535 172.229 30.876 172.284C35.4378 184.568 67.8127 194.495 109.82 196.917C116.255 197.291 122.92 197.484 129.743 197.484C136.593 197.484 143.284 197.288 149.745 196.914C191.717 194.482 224.06 184.552 228.606 172.278C228.683 172.081 228.75 171.885 228.807 171.688C229.131 172.593 229.299 173.549 229.303 174.513V174.513Z" fill="#3F3D56"/>
<path d="M59.3055 170.985C53.9851 170.985 48.3304 169.812 48.3304 167.637C48.3304 165.462 53.9851 164.288 59.3055 164.288C64.626 164.288 70.2806 165.462 70.2806 167.637C70.2806 169.812 64.626 170.985 59.3055 170.985ZM59.3055 164.944C53.2145 164.944 48.9698 166.363 48.9698 167.637C48.9698 168.91 53.2145 170.33 59.3055 170.33C65.3965 170.33 69.6413 168.91 69.6413 167.637C69.6413 166.363 65.3965 164.944 59.3055 164.944V164.944Z" fill="#3F3D56"/>
<path d="M82.0033 186.389C76.6829 186.389 71.0283 185.215 71.0283 183.041C71.0283 180.866 76.6829 179.692 82.0033 179.692C87.3238 179.692 92.9785 180.866 92.9785 183.041C92.9785 185.215 87.3238 186.389 82.0033 186.389ZM82.0033 180.348C75.9124 180.348 71.6676 181.767 71.6676 183.041C71.6676 184.314 75.9124 185.733 82.0033 185.733C88.0943 185.733 92.3391 184.314 92.3391 183.041C92.3391 181.767 88.0943 180.348 82.0033 180.348V180.348Z" fill="#3F3D56"/>
<path d="M199.968 170.985C194.648 170.985 188.993 169.812 188.993 167.637C188.993 165.462 194.648 164.288 199.968 164.288C205.289 164.288 210.943 165.462 210.943 167.637C210.943 169.812 205.289 170.985 199.968 170.985ZM199.968 164.944C193.877 164.944 189.632 166.363 189.632 167.637C189.632 168.91 193.877 170.33 199.968 170.33C206.059 170.33 210.304 168.91 210.304 167.637C210.304 166.363 206.059 164.944 199.968 164.944V164.944Z" fill="#3F3D56"/>
<path d="M177.27 186.389C171.95 186.389 166.295 185.215 166.295 183.041C166.295 180.866 171.95 179.692 177.27 179.692C182.591 179.692 188.245 180.866 188.245 183.041C188.245 185.215 182.591 186.389 177.27 186.389ZM177.27 180.348C171.179 180.348 166.935 181.767 166.935 183.041C166.935 184.314 171.179 185.733 177.27 185.733C183.361 185.733 187.606 184.314 187.606 183.041C187.606 181.767 183.361 180.348 177.27 180.348V180.348Z" fill="#3F3D56"/>
<path d="M129.637 193.599C124.316 193.599 118.662 192.426 118.662 190.251C118.662 188.076 124.316 186.902 129.637 186.902C134.957 186.902 140.612 188.076 140.612 190.251C140.612 192.426 134.957 193.599 129.637 193.599ZM129.637 187.558C123.546 187.558 119.301 188.977 119.301 190.251C119.301 191.524 123.546 192.944 129.637 192.944C135.728 192.944 139.973 191.524 139.973 190.251C139.973 188.977 135.728 187.558 129.637 187.558V187.558Z" fill="#3F3D56"/>
<path d="M137.728 262.482C145.145 262.482 151.158 256.318 151.158 248.713C151.158 241.109 145.145 234.944 137.728 234.944C130.31 234.944 124.297 241.109 124.297 248.713C124.297 256.318 130.31 262.482 137.728 262.482Z" fill="#2F2E41"/>
<path d="M132.62 257.759L126.084 261.115L127.911 264.856L134.447 261.5L132.62 257.759Z" fill="#2F2E41"/>
<path d="M128.773 264.476C129.16 263.873 128.203 262.526 126.636 261.466C125.068 260.406 123.483 260.036 123.095 260.638C122.707 261.241 123.664 262.589 125.232 263.648C126.8 264.708 128.385 265.079 128.773 264.476Z" fill="#2F2E41"/>
<path d="M142.835 257.759L141.008 261.5L147.545 264.856L149.372 261.115L142.835 257.759Z" fill="#2F2E41"/>
<path d="M150.223 263.648C151.791 262.589 152.748 261.241 152.36 260.638C151.973 260.036 150.387 260.406 148.82 261.466C147.252 262.525 146.295 263.873 146.683 264.476C147.07 265.079 148.656 264.708 150.223 263.648Z" fill="#2F2E41"/>
<path d="M136.787 250.051C139.323 250.051 141.378 247.944 141.378 245.345C141.378 242.746 139.323 240.639 136.787 240.639C134.252 240.639 132.197 242.746 132.197 245.345C132.197 247.944 134.252 250.051 136.787 250.051Z" fill="url(#paint4_linear)"/>
<path d="M137.904 244.443C138.499 243.833 138.496 242.84 137.896 242.226C137.297 241.612 136.329 241.608 135.734 242.218C135.139 242.828 135.142 243.821 135.741 244.435C136.341 245.049 137.309 245.053 137.904 244.443Z" fill="#3F3D56"/>
<path d="M148.323 233.734C148.525 228.636 144.239 224.319 138.751 224.09C133.263 223.862 128.65 227.809 128.448 232.906C128.246 238.004 132.061 239.162 137.549 239.39C143.038 239.619 148.121 238.831 148.323 233.734Z" fill="url(#paint5_linear)"/>
<path d="M156.065 255.923C156.948 255.146 155.706 252.176 153.29 249.292C150.874 246.407 148.2 244.698 147.316 245.476C146.433 246.253 147.675 249.222 150.091 252.107C152.507 254.992 155.181 256.701 156.065 255.923Z" fill="#2F2E41"/>
<path d="M125.402 252.107C127.818 249.222 129.06 246.253 128.177 245.476C127.293 244.698 124.619 246.407 122.203 249.292C119.787 252.176 118.545 255.146 119.428 255.923C120.312 256.701 122.986 254.992 125.402 252.107Z" fill="#2F2E41"/>
<path d="M141.416 254.139C141.562 254.958 141.384 255.802 140.922 256.486C140.46 257.171 139.752 257.639 138.954 257.788C138.155 257.937 137.332 257.754 136.664 257.281C135.997 256.808 135.54 256.082 135.395 255.263L135.394 255.257C135.093 253.552 136.379 252.949 138.042 252.64C139.705 252.331 141.115 252.434 141.416 254.139Z" fill="white"/>
<path d="M115.037 263.36C114.867 263.36 114.705 263.291 114.585 263.168C114.465 263.045 114.398 262.878 114.398 262.704V224.031C114.398 223.857 114.465 223.69 114.585 223.568C114.705 223.445 114.867 223.376 115.037 223.376C115.206 223.376 115.369 223.445 115.489 223.568C115.609 223.69 115.676 223.857 115.676 224.031V262.704C115.676 262.878 115.609 263.045 115.489 263.168C115.369 263.291 115.206 263.36 115.037 263.36Z" fill="#FF4949"/>
<path d="M130.062 274.83C129.893 274.83 129.73 274.761 129.61 274.638C129.49 274.516 129.423 274.349 129.423 274.175V235.502C129.423 235.328 129.49 235.161 129.61 235.038C129.73 234.915 129.893 234.846 130.062 234.846C130.232 234.846 130.394 234.915 130.514 235.038C130.634 235.161 130.702 235.328 130.702 235.502V274.175C130.702 274.349 130.634 274.516 130.514 274.638C130.394 274.761 130.232 274.83 130.062 274.83Z" fill="#FF4949"/>
<path d="M120.791 302.688C120.622 302.688 120.459 302.619 120.339 302.496C120.219 302.373 120.152 302.207 120.152 302.033V286.301C120.152 286.127 120.219 285.961 120.339 285.838C120.459 285.715 120.622 285.646 120.791 285.646C120.961 285.646 121.123 285.715 121.243 285.838C121.363 285.961 121.431 286.127 121.431 286.301V302.033C121.431 302.207 121.363 302.373 121.243 302.496C121.123 302.619 120.961 302.688 120.791 302.688V302.688Z" fill="#FF4949"/>
<path d="M133.898 222.065C133.729 222.065 133.566 221.996 133.446 221.873C133.326 221.75 133.259 221.583 133.259 221.409V205.678C133.259 205.504 133.326 205.337 133.446 205.214C133.566 205.091 133.729 205.022 133.898 205.022C134.068 205.022 134.231 205.091 134.351 205.214C134.47 205.337 134.538 205.504 134.538 205.678V221.409C134.538 221.583 134.47 221.75 134.351 221.873C134.231 221.996 134.068 222.065 133.898 222.065V222.065Z" fill="#FF4949"/>
<path d="M101.93 228.947C101.76 228.947 101.598 228.878 101.478 228.755C101.358 228.632 101.29 228.465 101.29 228.292V212.56C101.29 212.386 101.358 212.22 101.478 212.097C101.598 211.974 101.76 211.905 101.93 211.905C102.099 211.905 102.262 211.974 102.382 212.097C102.502 212.22 102.569 212.386 102.569 212.56V228.292C102.569 228.465 102.502 228.632 102.382 228.755C102.262 228.878 102.099 228.947 101.93 228.947V228.947Z" fill="#FF4949"/>
<path d="M157.555 230.586C157.386 230.586 157.223 230.517 157.103 230.394C156.983 230.271 156.916 230.104 156.916 229.93V214.199C156.916 214.025 156.983 213.858 157.103 213.735C157.223 213.612 157.386 213.543 157.555 213.543C157.725 213.543 157.888 213.612 158.007 213.735C158.127 213.858 158.195 214.025 158.195 214.199V229.93C158.195 230.104 158.127 230.271 158.007 230.394C157.888 230.517 157.725 230.586 157.555 230.586Z" fill="#FF4949"/>
<path d="M156.277 279.747C156.107 279.747 155.944 279.677 155.824 279.555C155.705 279.432 155.637 279.265 155.637 279.091V260.082C155.637 259.908 155.705 259.742 155.824 259.619C155.944 259.496 156.107 259.427 156.277 259.427C156.446 259.427 156.609 259.496 156.729 259.619C156.849 259.742 156.916 259.908 156.916 260.082V279.091C156.916 279.265 156.849 279.432 156.729 279.555C156.609 279.677 156.446 279.747 156.277 279.747Z" fill="#FF4949"/>
<path d="M143.489 296.461C143.32 296.461 143.157 296.392 143.037 296.269C142.917 296.146 142.85 295.98 142.85 295.806V267.62C142.85 267.446 142.917 267.28 143.037 267.157C143.157 267.034 143.32 266.965 143.489 266.965C143.659 266.965 143.821 267.034 143.941 267.157C144.061 267.28 144.128 267.446 144.128 267.62V295.806C144.128 295.98 144.061 296.146 143.941 296.269C143.821 296.392 143.659 296.461 143.489 296.461Z" fill="#FF4949"/>
<path d="M146.047 248.284C145.877 248.284 145.714 248.215 145.595 248.092C145.475 247.969 145.407 247.802 145.407 247.628V208.955C145.407 208.781 145.475 208.614 145.594 208.492C145.714 208.369 145.877 208.3 146.047 208.3C146.216 208.3 146.379 208.369 146.499 208.492C146.619 208.614 146.686 208.781 146.686 208.955V247.628C146.686 247.802 146.619 247.969 146.499 248.092C146.379 248.215 146.216 248.284 146.047 248.284Z" fill="#FF4949"/>
<path d="M224.432 330.578C225.347 329.792 224.11 326.733 221.67 323.744C219.229 320.756 216.508 318.97 215.593 319.755C214.678 320.541 215.915 323.6 218.356 326.589C220.796 329.577 223.517 331.363 224.432 330.578Z" fill="#2F2E41"/>
<path d="M218.43 327.179C220.835 319.784 216.936 311.79 209.722 309.325C202.509 306.86 194.712 310.857 192.307 318.252C189.902 325.648 193.801 333.641 201.015 336.106C208.228 338.571 216.026 334.575 218.43 327.179Z" fill="#3F3D56"/>
<path d="M211.196 333.793H207.013V341.476H211.196V333.793Z" fill="#2F2E41"/>
<path d="M202.831 333.793H198.648V341.476H202.831V333.793Z" fill="#2F2E41"/>
<path d="M207.71 342.905C209.636 342.905 211.196 342.305 211.196 341.565C211.196 340.825 209.636 340.225 207.71 340.225C205.785 340.225 204.225 340.825 204.225 341.565C204.225 342.305 205.785 342.905 207.71 342.905Z" fill="#2F2E41"/>
<path d="M199.345 342.727C201.27 342.727 202.831 342.127 202.831 341.387C202.831 340.647 201.27 340.047 199.345 340.047C197.42 340.047 195.859 340.647 195.859 341.387C195.859 342.127 197.42 342.727 199.345 342.727Z" fill="#2F2E41"/>
<path d="M201.045 304.973C202.275 299.897 207.702 296.91 213.166 298.302C218.631 299.693 222.065 304.935 220.835 310.011C219.606 315.086 215.527 315.103 210.062 313.712C204.598 312.321 199.816 310.049 201.045 304.973Z" fill="url(#paint6_linear)"/>
<path d="M196.081 319.191C196.592 318.085 194.222 315.835 190.787 314.165C187.352 312.494 184.153 312.037 183.641 313.142C183.13 314.248 185.5 316.498 188.935 318.168C192.37 319.839 195.57 320.296 196.081 319.191Z" fill="#2F2E41"/>
<path d="M203.31 324.443C205.845 324.443 207.9 322.336 207.9 319.737C207.9 317.138 205.845 315.032 203.31 315.032C200.775 315.032 198.72 317.138 198.72 319.737C198.72 322.336 200.775 324.443 203.31 324.443Z" fill="white"/>
<path d="M201.424 319.619C202.269 319.619 202.954 318.917 202.954 318.051C202.954 317.184 202.269 316.482 201.424 316.482C200.579 316.482 199.894 317.184 199.894 318.051C199.894 318.917 200.579 319.619 201.424 319.619Z" fill="#3F3D56"/>
<path d="M203.271 331.529C204.33 331.529 205.189 330.649 205.189 329.563C205.189 328.477 204.33 327.596 203.271 327.596C202.211 327.596 201.353 328.477 201.353 329.563C201.353 330.649 202.211 331.529 203.271 331.529Z" fill="white"/>
<path d="M206.918 304.933C207.977 304.933 208.836 304.052 208.836 302.966C208.836 301.88 207.977 301 206.918 301C205.859 301 205 301.88 205 302.966C205 304.052 205.859 304.933 206.918 304.933Z" fill="white"/>
<path d="M214.918 307.933C215.977 307.933 216.836 307.052 216.836 305.966C216.836 304.88 215.977 304 214.918 304C213.859 304 213 304.88 213 305.966C213 307.052 213.859 307.933 214.918 307.933Z" fill="white"/>
<ellipse cx="129.5" cy="173" rx="99.5" ry="28" fill="url(#paint7_linear)"/>
<line x1="131.39" y1="227.688" x2="135.39" y2="232.688" stroke="#FF4949"/>
<line x1="131.646" y1="232.646" x2="135.646" y2="228.646" stroke="#FF4949"/>
<line x1="138.39" y1="226.688" x2="142.39" y2="231.688" stroke="#FF4949"/>
<line x1="138.646" y1="231.646" x2="142.646" y2="227.646" stroke="#FF4949"/>
<defs>
<filter id="filter0_d" x="52" y="184" width="202" height="204" filterUnits="userSpaceOnUse" color-interpolation-filters="sRGB">
<feFlood flood-opacity="0" result="BackgroundImageFix"/>
<feColorMatrix in="SourceAlpha" type="matrix" values="0 0 0 0 0 0 0 0 0 0 0 0 0 0 0 0 0 0 127 0"/>
<feOffset dy="4"/>
<feGaussianBlur stdDeviation="2"/>
<feColorMatrix type="matrix" values="0 0 0 0 0 0 0 0 0 0 0 0 0 0 0 0 0 0 0.25 0"/>
<feBlend mode="normal" in2="BackgroundImageFix" result="effect1_dropShadow"/>
<feBlend mode="normal" in="SourceGraphic" in2="effect1_dropShadow" result="shape"/>
</filter>
<linearGradient id="paint0_linear" x1="84" y1="208" x2="232" y2="355" gradientUnits="userSpaceOnUse">
<stop stop-color="#010103"/>
<stop offset="0.895833" stop-color="#16336B"/>
<stop offset="1"/>
</linearGradient>
<linearGradient id="paint1_linear" x1="82" y1="218" x2="235" y2="351" gradientUnits="userSpaceOnUse">
<stop/>
<stop offset="1" stop-color="#FF4949"/>
</linearGradient>
<linearGradient id="paint2_linear" x1="191" y1="310" x2="191" y2="361" gradientUnits="userSpaceOnUse">
<stop stop-color="#16336B"/>
<stop offset="1" stop-color="#FF4949"/>
</linearGradient>
<linearGradient id="paint3_linear" x1="106" y1="110" x2="163" y2="150" gradientUnits="userSpaceOnUse">
<stop stop-color="#FF4949"/>
<stop offset="1" stop-color="#121212"/>
</linearGradient>
<linearGradient id="paint4_linear" x1="136.787" y1="240.639" x2="136.787" y2="250.051" gradientUnits="userSpaceOnUse">
<stop stop-color="#16666B"/>
<stop offset="1" stop-color="#49FF7C"/>
</linearGradient>
<linearGradient id="paint5_linear" x1="138.385" y1="224.081" x2="138.385" y2="239.425" gradientUnits="userSpaceOnUse">
<stop stop-color="white"/>
<stop offset="1" stop-color="#16336B"/>
</linearGradient>
<linearGradient id="paint6_linear" x1="210.968" y1="297.96" x2="210.968" y2="314.499" gradientUnits="userSpaceOnUse">
<stop stop-color="#FF4949"/>
<stop offset="1" stop-color="#2F2E41"/>
</linearGradient>
<linearGradient id="paint7_linear" x1="129.5" y1="145" x2="129.5" y2="201" gradientUnits="userSpaceOnUse">
<stop/>
<stop offset="1" stop-color="#C4C4C4" stop-opacity="0"/>
</linearGradient>
</defs>
</svg>
